<?xml version="1.0" standalone="no"?>
<!DOCTYPE svg PUBLIC "-//W3C//DTD SVG 20010904//EN"
 "http://www.w3.org/TR/2001/REC-SVG-20010904/DTD/svg10.dtd">
<svg version="1.0" xmlns="http://www.w3.org/2000/svg"
 width="225.000000pt" height="225.000000pt" viewBox="0 0 225.000000 225.000000"
 preserveAspectRatio="xMidYMid meet">

<g transform="translate(0.000000,225.000000) scale(0.100000,-0.100000)"
fill="#000000" stroke="none">
<path d="M241 1807 c-13 -21 -12 -21 5 -5 10 10 16 20 13 22 -3 3 -11 -5 -18
-17z"/>
<path d="M1448 1813 c6 -2 18 -2 25 0 6 3 1 5 -13 5 -14 0 -19 -2 -12 -5z"/>
<path d="M1558 1803 c7 -3 16 -2 19 1 4 3 -2 6 -13 5 -11 0 -14 -3 -6 -6z"/>
<path d="M1145 1770 c-3 -6 1 -7 9 -4 18 7 21 14 7 14 -6 0 -13 -4 -16 -10z"/>
<path d="M1062 1745 c16 -18 16 -20 -10 -44 -15 -14 -30 -26 -34 -26 -4 0 -15
-11 -24 -23 -16 -23 -15 -24 2 -20 12 2 18 11 16 22 -2 10 1 16 5 13 5 -3 23
9 41 27 l32 33 -23 19 c-22 18 -22 18 -5 -1z"/>
<path d="M1096 1751 c-4 -5 -2 -12 3 -15 5 -4 12 -2 15 3 4 5 2 12 -3 15 -5 4
-12 2 -15 -3z"/>
<path d="M190 1735 c-11 -13 -10 -14 4 -9 9 3 16 10 16 15 0 13 -6 11 -20 -6z"/>
<path d="M2037 1707 c-4 -10 1 -14 16 -13 12 1 26 -3 30 -9 5 -6 7 -4 4 5 -2
8 -10 14 -17 12 -7 -2 -16 2 -20 8 -5 8 -9 7 -13 -3z"/>
<path d="M159 1693 c-13 -16 -12 -17 4 -4 9 7 17 15 17 17 0 8 -8 3 -21 -13z"/>
<path d="M2087 1649 c-4 -16 -3 -18 9 -8 7 6 11 15 8 20 -8 13 -11 11 -17 -12z"/>
<path d="M960 1627 c0 -9 5 -17 10 -17 6 0 10 -5 10 -11 0 -5 -4 -7 -10 -4 -5
3 -10 2 -10 -4 0 -17 18 -21 24 -5 3 9 -1 25 -9 37 -13 18 -15 19 -15 4z"/>
<path d="M2100 1625 c-10 -12 -10 -21 -1 -38 11 -21 11 -21 8 6 -5 32 -4 32
18 11 10 -10 13 -24 9 -36 -4 -14 -2 -18 5 -14 6 4 11 3 11 -3 0 -17 -22 -24
-32 -10 -7 11 -11 11 -15 2 -2 -7 -9 -13 -14 -13 -4 0 -6 6 -4 13 4 9 -39 11
-200 9 -122 -2 -205 -7 -205 -12 0 -6 -9 -10 -21 -10 -13 0 -19 -5 -16 -13 2
-6 -2 -18 -9 -25 -8 -7 -14 -8 -14 -2 0 6 -35 10 -92 9 -67 -1 -86 -3 -68 -10
20 -7 18 -8 -14 -4 -41 4 -81 -10 -71 -25 3 -6 -1 -7 -10 -4 -30 12 -45 -54
-45 -196 l0 -130 151 0 151 0 -5 -22 c-3 -13 -16 -85 -28 -160 l-22 -138 -123
0 -124 0 0 -395 c0 -313 3 -395 13 -395 7 0 44 9 83 19 348 97 632 357 759
695 55 146 78 317 65 482 -9 115 -48 275 -61 251 -5 -8 -4 -28 2 -47 9 -24 9
-34 -1 -43 -10 -9 -11 -9 -6 1 5 7 3 26 -3 41 -9 19 -9 35 -1 55 5 15 7 33 3
39 -4 7 -8 17 -9 23 -3 17 -42 104 -47 104 -3 0 -10 -7 -17 -15z m-426 -141
c9 -24 8 -25 -13 -12 -11 7 -17 16 -15 20 8 13 21 9 28 -8z m-81 -1 c-13 -2
-35 -2 -50 0 -16 2 -5 4 22 4 28 0 40 -2 28 -4z m-173 -7 c0 -2 -7 -7 -16 -10
-8 -3 -12 -2 -9 4 6 10 25 14 25 6z m160 -20 c14 -2 -19 -3 -74 -4 -54 0 -94
3 -88 7 10 6 110 4 162 -3z m60 4 c12 -8 11 -10 -7 -10 -13 0 -23 5 -23 10 0
13 11 13 30 0z"/>
<path d="M84 1533 c-96 -216 -103 -538 -17 -778 132 -367 439 -642 816 -730
l57 -13 0 399 0 399 -140 0 -140 0 0 160 0 160 140 0 140 0 0 149 c0 138 8
218 26 265 5 12 4 17 -3 13 -6 -4 -193 -7 -417 -7 -223 -1 -406 -5 -406 -9 0
-5 -11 -8 -24 -7 -23 1 -23 2 -10 29 8 15 12 27 9 27 -3 0 -17 -25 -31 -57z
m856 -19 c0 -8 -4 -12 -10 -9 -6 4 -10 -9 -11 -32 -1 -38 -1 -38 -9 -8 -13 52
-11 65 10 65 11 0 20 -7 20 -16z m-868 -56 c-8 -8 -9 -4 -5 13 4 13 8 18 11
10 2 -7 -1 -18 -6 -23z m821 12 c3 -11 1 -20 -4 -20 -5 0 -9 9 -9 20 0 11 2
20 4 20 2 0 6 -9 9 -20z m19 -85 c3 -13 1 -22 -3 -19 -9 5 -13 44 -5 44 2 0 6
-11 8 -25z m-839 -55 c3 -11 1 -20 -4 -20 -5 0 -9 9 -9 20 0 11 2 20 4 20 2 0
6 -9 9 -20z"/>
<path d="M126 1574 c-11 -28 -6 -39 9 -20 8 11 15 23 15 28 0 14 -18 9 -24 -8z"/>
</g>
</svg>
