<?xml version="1.0" standalone="no"?>
<!DOCTYPE svg PUBLIC "-//W3C//DTD SVG 20010904//EN"
 "http://www.w3.org/TR/2001/REC-SVG-20010904/DTD/svg10.dtd">
<svg version="1.0" xmlns="http://www.w3.org/2000/svg"
 width="360.000000pt" height="237.000000pt" viewBox="0 0 360.000000 237.000000"
 preserveAspectRatio="xMidYMid meet">

<g transform="translate(0.000000,237.000000) scale(0.100000,-0.100000)"
fill="#000000" stroke="none">
<path d="M1699 2336 c-130 -46 -226 -169 -252 -322 l-11 -64 -176 0 c-96 0
-181 -4 -189 -9 -11 -7 -12 -40 -7 -177 4 -93 9 -196 11 -229 2 -33 7 -127 10
-210 14 -353 27 -551 40 -575 7 -14 25 -36 40 -50 l27 -25 610 0 609 0 39 41
c42 46 45 60 55 254 3 63 15 303 26 533 16 329 18 421 9 432 -10 12 -46 15
-189 15 l-176 0 -13 66 c-27 143 -123 271 -235 312 -66 25 -171 29 -228 8z
m210 -102 c86 -43 138 -120 160 -236 l8 -48 -273 0 -273 0 6 38 c32 209 210
326 372 246z m-4 -508 c49 -13 108 -39 132 -58 10 -8 9 -17 -4 -39 -10 -16
-20 -29 -24 -29 -4 0 -33 12 -64 26 -120 55 -241 40 -292 -35 -28 -41 -29 -76
-4 -117 24 -39 67 -66 161 -100 200 -71 270 -138 270 -256 -1 -68 -27 -125
-79 -169 -51 -45 -102 -60 -195 -60 -86 0 -177 27 -243 72 -47 33 -51 43 -27
77 19 28 24 28 76 -7 164 -109 385 -61 382 83 -2 78 -48 119 -201 175 -117 43
-154 64 -196 110 -59 65 -69 136 -32 215 49 103 194 151 340 112z"/>
<path d="M1053 516 c-38 -17 -66 -66 -57 -100 9 -38 39 -63 103 -86 105 -39
132 -91 69 -131 -37 -22 -78 -21 -130 6 -20 9 -35 12 -41 6 -25 -25 47 -61
123 -61 41 0 55 5 82 29 27 24 33 36 33 71 0 52 -27 78 -112 110 -93 35 -115
68 -73 110 23 23 84 27 125 8 22 -10 28 -9 35 3 20 32 -102 59 -157 35z"/>
<path d="M1280 340 c0 -183 1 -190 20 -190 18 0 20 7 20 73 0 87 19 117 75
117 53 0 75 -36 75 -121 0 -55 3 -69 15 -69 12 0 15 16 15 84 0 74 -3 86 -24
109 -36 39 -82 46 -138 22 -16 -6 -18 1 -18 79 0 79 -2 86 -20 86 -19 0 -20
-7 -20 -190z"/>
<path d="M1584 346 c-28 -28 -34 -41 -34 -78 0 -50 18 -82 60 -103 37 -19 73
-19 110 0 42 21 60 53 60 103 0 37 -6 50 -34 78 -29 29 -41 34 -81 34 -40 0
-52 -5 -81 -34z m138 -23 c25 -22 30 -60 14 -92 -34 -65 -135 -52 -151 19 -16
74 79 125 137 73z"/>
<path d="M1830 200 c0 -173 1 -180 20 -180 18 0 20 7 20 76 0 69 2 75 18 68
35 -15 90 -16 119 0 30 15 63 68 63 101 0 32 -33 86 -61 100 -34 18 -82 19
-112 4 -16 -9 -22 -9 -25 0 -2 6 -12 11 -23 11 -18 0 -19 -9 -19 -180z m178
117 c63 -58 -19 -163 -96 -123 -32 17 -42 34 -42 74 0 35 9 47 45 66 34 18 60
13 93 -17z"/>
<path d="M2175 368 c-37 -20 -55 -51 -55 -98 0 -52 18 -83 60 -105 54 -28 141
-11 148 28 4 18 -22 24 -33 7 -10 -17 -91 -12 -113 8 -45 37 -33 46 63 47 l90
1 -2 34 c-3 69 -94 114 -158 78z m108 -45 c29 -27 20 -33 -53 -33 -68 0 -77 4
-62 26 24 35 79 39 115 7z"/>
<path d="M2442 364 c-73 -51 -65 -161 14 -199 40 -19 75 -19 120 0 37 15 43
43 8 37 -82 -16 -106 -14 -130 9 -42 39 -32 46 66 44 50 -1 93 1 95 5 2 4 0
24 -6 44 -18 65 -112 99 -167 60z m98 -29 c54 -28 39 -45 -40 -45 -38 0 -70 4
-70 8 0 17 46 49 73 51 4 1 21 -6 37 -14z"/>
</g>
</svg>
