<?xml version="1.0" standalone="no"?>
<!DOCTYPE svg PUBLIC "-//W3C//DTD SVG 20010904//EN"
 "http://www.w3.org/TR/2001/REC-SVG-20010904/DTD/svg10.dtd">
<svg version="1.0" xmlns="http://www.w3.org/2000/svg"
 width="500.000000pt" height="500.000000pt" viewBox="0 0 500.000000 500.000000"
 preserveAspectRatio="xMidYMid meet">

<g transform="translate(0.000000,500.000000) scale(0.100000,-0.100000)"
fill="#000000" stroke="none">
<path d="M583 4989 c-61 -10 -161 -47 -220 -81 -156 -89 -267 -226 -330 -404
l-28 -79 0 -1925 0 -1925 28 -79 c81 -229 234 -382 464 -464 l78 -27 1925 0
1925 0 78 27 c230 82 383 235 464 464 l28 79 0 1925 0 1925 -27 78 c-82 230
-235 383 -464 464 l-79 28 -1895 1 c-1042 1 -1918 -2 -1947 -7z m989 -1058
l167 -106 0 -502 c1 -277 -1 -503 -4 -503 -3 0 -42 19 -88 42 -45 24 -85 44
-89 46 -5 2 -8 -161 -8 -362 l0 -366 175 0 176 0 -3 -97 -3 -98 -277 -3 -278
-2 0 522 0 523 -203 108 c-112 59 -206 107 -210 107 -4 0 -7 -344 -7 -765 0
-421 -3 -765 -6 -765 -3 0 -81 46 -172 103 -92 57 -183 113 -203 125 -74 45
-70 0 -67 824 3 731 3 737 24 765 12 15 97 75 190 131 344 211 630 380 649
385 39 9 72 -7 237 -112z m911 -1101 c29 -11 72 -36 95 -56 l42 -36 0 51 0 51
94 0 c52 0 97 -4 100 -8 3 -5 2 -198 -1 -430 l-6 -422 -94 0 -93 0 0 51 0 51
-42 -36 c-74 -64 -188 -94 -283 -77 -170 32 -294 151 -340 326 -46 178 26 386
168 487 96 69 250 89 360 48z m1157 -72 l-1 -83 -214 -255 -213 -255 219 -3
219 -2 0 -90 0 -90 -347 2 -348 3 -3 72 -3 72 220 263 220 263 -214 3 -215 2
0 90 0 90 340 0 340 0 0 -82z"/>
<path d="M2343 2669 c-55 -10 -91 -30 -129 -71 -55 -58 -68 -94 -69 -188 0
-76 3 -91 29 -138 56 -100 156 -146 270 -122 47 10 69 21 107 57 60 56 84 115
84 203 -2 171 -133 288 -292 259z"/>
</g>
</svg>
