<?xml version="1.0" standalone="no"?>
<!DOCTYPE svg PUBLIC "-//W3C//DTD SVG 20010904//EN"
 "http://www.w3.org/TR/2001/REC-SVG-20010904/DTD/svg10.dtd">
<svg version="1.0" xmlns="http://www.w3.org/2000/svg"
 width="980.000000pt" height="980.000000pt" viewBox="0 0 980.000000 980.000000"
 preserveAspectRatio="xMidYMid meet">

<g transform="translate(0.000000,980.000000) scale(0.100000,-0.100000)"
fill="#000000" stroke="none">
<path d="M5705 7460 c-148 -34 -158 -41 -210 -146 -25 -50 -42 -74 -54 -74
-58 0 -83 -122 -86 -420 l-1 -205 -78 -75 c-89 -86 -167 -181 -185 -226 -6
-17 -32 -48 -57 -68 -25 -21 -49 -48 -54 -61 -6 -16 -25 -28 -60 -40 -51 -17
-54 -17 -197 11 -81 16 -152 35 -159 42 -8 7 -38 21 -68 32 -30 10 -75 30 -99
44 -24 14 -49 26 -54 26 -6 0 -34 16 -63 35 -41 28 -62 35 -99 35 -35 0 -53 5
-66 20 -9 10 -34 25 -54 31 -20 6 -55 29 -78 50 -23 21 -89 62 -147 91 -101
50 -104 53 -125 102 -11 28 -25 69 -30 91 -13 57 -51 159 -61 165 -5 3 -20 29
-33 57 -32 69 -44 83 -75 83 -16 0 -43 17 -78 50 -51 48 -55 50 -111 50 -172
0 -254 -36 -408 -180 -33 -30 -112 -95 -176 -143 -109 -83 -118 -91 -129 -135
-7 -28 -14 -150 -16 -297 -3 -137 -9 -277 -15 -310 -12 -72 -12 -280 -1 -385
5 -41 7 -105 4 -142 -2 -37 1 -113 8 -169 13 -108 26 -131 78 -144 37 -9 958
-26 1006 -19 l39 6 -7 -33 c-3 -19 -9 -54 -13 -78 -3 -25 -17 -60 -29 -79 -13
-19 -24 -49 -23 -66 0 -17 -3 -56 -7 -87 l-6 -56 59 -6 c77 -8 145 -38 206
-89 27 -22 49 -39 51 -37 1 2 12 21 25 41 12 20 48 61 81 91 l59 55 -225 7
c-123 4 -224 11 -224 15 0 33 11 36 88 27 178 -20 865 14 980 49 29 9 51 18
49 20 -2 2 -41 -1 -88 -6 -107 -12 -455 -37 -624 -45 -136 -7 -372 8 -389 25
-6 6 -6 18 1 32 l10 23 324 1 c323 1 447 9 715 49 54 8 209 26 344 40 233 25
382 51 514 92 59 18 60 19 107 101 55 96 122 191 173 246 l36 38 -34 57 c-19
31 -71 108 -116 171 -46 63 -84 120 -87 126 -2 6 21 32 51 58 71 60 91 95 110
185 18 84 53 150 96 181 34 24 162 70 196 70 25 0 208 -62 351 -119 116 -46
159 -56 204 -46 40 9 119 82 171 158 21 31 41 57 43 57 10 0 55 -89 55 -109 0
-24 -126 -229 -191 -311 -48 -60 -57 -99 -66 -267 l-6 -132 -106 -47 c-58 -25
-123 -53 -144 -61 -35 -14 -48 -42 -16 -35 18 4 314 133 489 212 219 99 211
96 226 75 8 -10 14 -24 14 -30 0 -6 -109 -58 -242 -115 -343 -146 -487 -213
-488 -227 0 -20 9 -17 133 41 146 69 585 256 602 256 13 0 47 -130 49 -188 1
-35 0 -36 -99 -86 -55 -28 -205 -87 -333 -130 -207 -71 -264 -96 -217 -96 8 0
35 -10 59 -22 l45 -22 77 24 c42 14 97 39 121 58 59 45 103 62 163 62 57 0
168 49 208 93 l23 25 -16 93 c-20 119 -51 231 -80 289 -12 25 -32 90 -45 145
-37 167 -88 320 -137 418 -25 50 -52 99 -60 108 -7 8 -28 71 -47 140 -36 132
-71 231 -92 264 -7 11 -25 54 -40 95 -34 96 -66 160 -93 184 -11 10 -110 49
-218 86 -109 37 -238 85 -288 107 -167 75 -269 88 -420 53z m325 -375 c0 -14
0 -28 1 -32 0 -5 -32 -18 -73 -31 -75 -24 -175 -30 -232 -14 l-29 8 50 22 c72
31 212 71 251 71 28 1 32 -2 32 -24z m-370 -100 c308 -30 382 -51 364 -100 -7
-16 -22 -17 -203 -11 -183 7 -332 18 -408 32 -32 6 -33 8 -33 55 0 40 3 49 18
49 9 0 127 -11 262 -25z m-2039 -112 c14 -36 7 -49 -40 -73 -54 -27 -391 -160
-407 -160 -42 0 -10 55 51 88 42 23 368 171 378 171 4 1 12 -11 18 -26z m1864
-51 c50 -22 146 -59 214 -82 137 -48 175 -70 208 -119 24 -36 31 -81 12 -81
-6 0 -29 16 -51 36 -45 40 -131 84 -166 84 -12 0 -64 9 -115 20 -90 20 -93 22
-154 83 -42 41 -63 69 -63 85 0 16 4 22 13 19 6 -3 53 -23 102 -45z m45 39
c25 -7 25 -8 3 -15 -14 -4 -33 -1 -50 8 l-28 15 25 0 c14 -1 36 -4 50 -8z
m197 -17 c-3 -4 -28 -16 -54 -29 -45 -20 -51 -21 -90 -7 -43 14 -53 26 -30 35
18 8 181 8 174 1z m-2357 -18 c0 -3 -24 -15 -53 -29 -34 -15 -82 -27 -133 -31
l-81 -7 0 30 c0 25 5 31 26 34 36 6 241 8 241 3z m261 -124 c-28 -56 -38 -65
-107 -104 -97 -54 -138 -89 -170 -144 -29 -49 -44 -49 -44 -1 0 51 31 89 157
189 65 53 131 110 148 127 28 30 30 31 38 13 6 -14 0 -36 -22 -80z m-61 53
c-14 -17 -40 -20 -40 -6 0 8 18 16 44 20 5 0 3 -6 -4 -14z m1864 -26 c14 -17
26 -34 26 -37 0 -8 -57 -42 -71 -42 -5 0 -9 22 -9 48 0 72 14 79 54 31z
m-1901 1 c7 -1 -1 -12 -18 -25 -30 -25 -60 -30 -104 -18 -21 5 -17 9 30 29 30
12 60 20 67 18 8 -2 19 -4 25 -4z m154 -64 l13 -38 -32 6 c-42 8 -43 10 -28
46 16 39 30 34 47 -14z m163 -137 c0 -5 -9 -9 -20 -9 -11 0 -20 6 -20 14 0 9
7 12 20 9 11 -3 20 -9 20 -14z m1451 -16 c-5 -10 -12 -26 -15 -35 -3 -10 -15
-18 -28 -18 -20 0 -20 2 12 35 38 39 44 43 31 18z m320 -19 c57 -31 99 -79 99
-112 0 -12 -2 -22 -4 -22 -2 0 -34 14 -71 31 -38 17 -100 37 -139 45 -38 8
-73 17 -77 20 -10 6 -1 34 20 58 23 26 105 16 172 -20z m-1917 4 c16 -22 15
-23 -28 -45 -24 -12 -69 -45 -100 -73 -43 -41 -57 -48 -62 -36 -10 25 14 80
49 113 72 68 114 80 141 41z m216 -6 c22 -18 22 -18 -22 -14 -61 5 -78 12 -53
22 32 13 51 11 75 -8z m-75 -77 c-28 -24 -53 -44 -57 -45 -4 0 -39 -38 -78
-85 -39 -47 -78 -85 -85 -85 -20 0 -20 0 14 75 36 79 95 153 136 171 16 7 50
13 75 14 l44 0 -49 -45z m166 6 l34 -21 -81 0 c-44 0 -83 3 -87 6 -3 4 4 15
16 25 27 24 69 20 118 -10z m1274 9 c-7 -12 -125 -73 -130 -68 -9 9 48 58 77
67 45 13 60 13 53 1z m193 -83 c58 -37 182 -159 182 -178 0 -22 -50 -4 -138
50 -53 33 -133 73 -178 90 -44 17 -89 37 -99 45 -17 12 -15 14 26 29 67 24
131 13 207 -36z m-1611 27 c-3 -3 -12 -4 -19 -1 -8 3 -5 6 6 6 11 1 17 -2 13
-5z m186 -3 c17 -6 16 -8 -5 -27 -13 -12 -47 -34 -76 -50 -29 -15 -83 -55
-118 -87 -36 -33 -67 -57 -71 -54 -12 13 9 75 38 110 17 21 50 47 72 59 23 11
53 29 66 39 24 19 61 23 94 10z m-167 -24 c-10 -7 -34 -24 -53 -39 -21 -16
-48 -28 -65 -28 l-29 0 21 30 c14 20 32 31 58 35 20 4 44 8 52 10 30 6 35 4
16 -8z m336 -6 c4 -3 -29 -7 -74 -9 -70 -2 -79 0 -68 13 9 11 26 13 74 8 33
-3 64 -8 68 -12z m1007 -12 c17 -6 31 -15 31 -19 0 -5 -24 -16 -52 -26 -29 -9
-80 -30 -112 -46 l-59 -29 67 66 c36 36 72 65 80 65 7 0 27 -5 45 -11z m-1851
-33 c34 -18 82 -69 116 -124 29 -46 69 -76 129 -94 40 -12 45 -26 26 -75 -6
-15 -35 -122 -64 -238 -48 -188 -56 -210 -75 -213 -25 -4 -471 26 -511 34 -22
4 -31 16 -49 67 -47 131 -76 174 -147 225 -129 91 -213 162 -213 180 0 9 5 34
11 55 l10 38 37 -30 c85 -67 163 -93 214 -73 9 4 72 52 140 108 186 152 189
154 276 154 44 0 84 -6 100 -14z m821 -1 c-106 -21 -170 -64 -231 -154 -34
-49 -46 -61 -65 -61 -32 0 54 150 110 193 45 34 51 35 157 35 l95 0 -66 -13z
m1120 -10 c-3 -2 -33 -13 -68 -24 -71 -22 -74 -15 -3 11 46 16 80 23 71 13z
m-952 -17 l28 -11 -45 -8 c-64 -12 -70 -12 -120 -10 l-45 3 40 19 c46 21 101
24 142 7z m-413 -23 c-9 -14 -24 -25 -33 -25 -11 1 -7 8 14 25 37 31 39 31 19
0z m216 10 c-12 -15 -80 -38 -88 -30 -5 5 76 44 92 45 5 0 3 -7 -4 -15z m1266
-16 c37 -23 42 -34 18 -43 -25 -10 -53 -7 -103 9 -25 8 -59 18 -76 21 -29 7
-28 8 20 20 73 18 104 16 141 -7z m-981 -19 c15 -6 8 -9 -28 -9 -63 -1 -180
-47 -291 -115 -89 -55 -115 -62 -96 -26 18 34 137 102 245 141 53 19 137 23
170 9z m803 -20 c98 -20 146 -43 186 -91 26 -31 41 -67 32 -76 -3 -3 -47 13
-97 36 -55 26 -128 50 -184 61 -91 19 -145 37 -145 50 0 11 85 49 100 44 8 -3
57 -14 108 -24z m-1068 -4 c-29 -15 -70 -25 -115 -29 -65 -5 -68 -4 -43 9 38
20 127 43 168 43 l35 0 -45 -23z m460 -46 c107 -23 196 -42 197 -44 2 -2 -15
-20 -38 -41 -27 -24 -37 -40 -30 -44 16 -10 -86 -77 -129 -85 -19 -3 -115 -15
-213 -26 -98 -11 -188 -25 -200 -32 -12 -6 -38 -26 -57 -45 -37 -36 -108 -75
-121 -67 -7 4 6 58 29 115 6 15 36 55 67 90 56 63 60 75 41 120 -5 12 9 23 64
48 135 63 139 63 390 11z m395 -4 c18 -13 17 -14 -16 -21 -19 -4 -65 -18 -103
-31 -80 -27 -73 -13 17 32 74 37 78 38 102 20z m157 -83 c63 -33 168 -128 168
-152 0 -24 -48 -9 -100 30 -118 90 -235 121 -355 96 -38 -8 -72 -13 -74 -11
-7 7 83 42 159 62 89 24 113 21 202 -25z m61 26 c31 -8 36 -13 27 -24 -9 -11
-17 -10 -46 7 -51 30 -46 35 19 17z m-188 -79 c20 -5 23 -8 10 -9 -11 -1 -36
-4 -55 -7 -23 -4 -42 0 -55 10 -19 14 -17 15 25 14 25 0 59 -4 75 -8z m-135
-27 c0 -14 -103 -52 -150 -56 -25 -2 -53 -7 -64 -12 -14 -6 -18 -5 -14 6 2 7
28 26 57 41 41 21 67 28 112 28 33 0 59 -3 59 -7z m248 -22 c9 -5 -2 -10 -32
-14 -26 -4 -59 -13 -75 -21 -22 -12 -41 -13 -96 -5 -38 5 -71 11 -73 13 -2 3
25 11 60 19 69 17 195 21 216 8z m-90 -86 c69 -17 112 -40 112 -61 0 -18 -24
-18 -86 1 -161 47 -368 59 -454 25 -69 -27 -52 -5 24 32 60 28 63 29 201 24
77 -3 168 -12 203 -21z m-133 -54 c37 -6 39 -8 40 -43 2 -48 14 -61 97 -104
37 -20 87 -55 110 -78 43 -43 98 -114 98 -126 0 -28 -125 -8 -203 32 -54 28
-112 27 -247 -6 -356 -85 -697 -138 -857 -134 l-111 3 216 124 c119 69 291
168 382 222 94 56 189 105 220 113 54 15 153 14 255 -3z m-2040 -251 c568 -48
977 -63 1135 -40 35 5 66 7 68 5 2 -2 -19 -15 -47 -29 -47 -24 -64 -27 -248
-34 -231 -9 -392 -3 -668 27 -110 12 -281 27 -380 34 l-180 12 -3 29 -4 28 49
-6 c26 -3 152 -15 278 -26z m-48 -65 c103 -8 245 -22 314 -30 290 -33 579 -41
759 -19 58 7 47 -3 -60 -56 -47 -24 -95 -52 -108 -64 -24 -21 -27 -21 -520
-19 -312 2 -524 7 -569 14 -81 13 -77 8 -88 122 l-7 67 45 0 c25 0 130 -7 234
-15z"/>
<path d="M4590 6140 c0 -5 5 -10 10 -10 6 0 10 5 10 10 0 6 -4 10 -10 10 -5 0
-10 -4 -10 -10z"/>
<path d="M4580 6089 c0 -5 5 -7 10 -4 6 3 10 8 10 11 0 2 -4 4 -10 4 -5 0 -10
-5 -10 -11z"/>
<path d="M4480 6029 c0 -5 5 -7 10 -4 6 3 10 8 10 11 0 2 -4 4 -10 4 -5 0 -10
-5 -10 -11z"/>
<path d="M4435 5990 c3 -5 8 -10 11 -10 2 0 4 5 4 10 0 6 -5 10 -11 10 -5 0
-7 -4 -4 -10z"/>
<path d="M4490 5690 c0 -5 5 -10 10 -10 6 0 10 5 10 10 0 6 -4 10 -10 10 -5 0
-10 -4 -10 -10z"/>
<path d="M4620 5690 c0 -5 5 -10 10 -10 6 0 10 5 10 10 0 6 -4 10 -10 10 -5 0
-10 -4 -10 -10z"/>
<path d="M4710 5680 c0 -5 5 -10 10 -10 6 0 10 5 10 10 0 6 -4 10 -10 10 -5 0
-10 -4 -10 -10z"/>
<path d="M4780 5660 c0 -5 5 -10 10 -10 6 0 10 5 10 10 0 6 -4 10 -10 10 -5 0
-10 -4 -10 -10z"/>
<path d="M4410 5630 c0 -5 4 -10 9 -10 6 0 13 5 16 10 3 6 -1 10 -9 10 -9 0
-16 -4 -16 -10z"/>
<path d="M4528 5633 c7 -3 16 -2 19 1 4 3 -2 6 -13 5 -11 0 -14 -3 -6 -6z"/>
<path d="M4860 5630 c0 -5 4 -10 9 -10 6 0 13 5 16 10 3 6 -1 10 -9 10 -9 0
-16 -4 -16 -10z"/>
<path d="M4600 5619 c0 -5 5 -7 10 -4 6 3 10 8 10 11 0 2 -4 4 -10 4 -5 0 -10
-5 -10 -11z"/>
<path d="M4508 5603 c7 -3 16 -2 19 1 4 3 -2 6 -13 5 -11 0 -14 -3 -6 -6z"/>
<path d="M4615 5580 c-3 -5 -1 -10 4 -10 6 0 11 5 11 10 0 6 -2 10 -4 10 -3 0
-8 -4 -11 -10z"/>
<path d="M4500 5570 c0 -5 5 -10 10 -10 6 0 10 5 10 10 0 6 -4 10 -10 10 -5 0
-10 -4 -10 -10z"/>
<path d="M4748 5573 c7 -3 16 -2 19 1 4 3 -2 6 -13 5 -11 0 -14 -3 -6 -6z"/>
<path d="M4425 5560 c-3 -5 -2 -10 4 -10 5 0 13 5 16 10 3 6 2 10 -4 10 -5 0
-13 -4 -16 -10z"/>
<path d="M4610 5540 c0 -5 4 -10 9 -10 6 0 13 5 16 10 3 6 -1 10 -9 10 -9 0
-16 -4 -16 -10z"/>
<path d="M4488 5533 c7 -3 16 -2 19 1 4 3 -2 6 -13 5 -11 0 -14 -3 -6 -6z"/>
<path d="M4358 5523 c7 -3 16 -2 19 1 4 3 -2 6 -13 5 -11 0 -14 -3 -6 -6z"/>
<path d="M4210 5460 c0 -5 4 -10 9 -10 6 0 13 5 16 10 3 6 -1 10 -9 10 -9 0
-16 -4 -16 -10z"/>
<path d="M4128 5453 c7 -3 16 -2 19 1 4 3 -2 6 -13 5 -11 0 -14 -3 -6 -6z"/>
<path d="M4288 5433 c7 -3 16 -2 19 1 4 3 -2 6 -13 5 -11 0 -14 -3 -6 -6z"/>
<path d="M4030 5410 c0 -5 5 -10 10 -10 6 0 10 5 10 10 0 6 -4 10 -10 10 -5 0
-10 -4 -10 -10z"/>
<path d="M4155 5410 c-3 -5 1 -10 9 -10 9 0 16 5 16 10 0 6 -4 10 -9 10 -6 0
-13 -4 -16 -10z"/>
<path d="M4665 6689 c-110 -13 -192 -29 -300 -56 -115 -30 -315 -101 -315
-114 0 -12 125 -69 153 -69 22 0 223 -96 253 -121 6 -5 37 -18 68 -29 31 -10
69 -26 84 -34 28 -15 215 -56 257 -56 31 0 140 109 175 174 14 26 71 96 128
156 56 59 102 113 102 118 0 34 -412 54 -605 31z"/>
<path d="M6082 5595 c-144 -63 -371 -430 -526 -850 -49 -135 -46 -132 -186
-180 -99 -33 -203 -55 -267 -55 -29 0 -53 -3 -53 -7 1 -17 57 -88 92 -116 50
-40 103 -45 212 -17 48 12 89 20 91 18 2 -2 -3 -30 -11 -63 -25 -107 -15 -183
28 -216 20 -15 17 -17 -68 -52 -49 -20 -119 -49 -156 -65 l-67 -28 33 -35 c19
-19 56 -45 84 -58 l50 -23 101 51 c170 85 358 133 599 153 88 7 142 16 142 22
-2 41 -66 97 -143 122 -63 21 -161 15 -269 -16 -42 -13 -84 -20 -92 -17 -34
13 -12 182 44 336 16 41 32 64 62 86 102 76 254 264 342 424 83 150 154 355
158 454 2 39 -2 51 -27 78 -33 34 -95 69 -122 69 -10 -1 -33 -7 -51 -15z m3
-356 c-25 -63 -67 -151 -92 -196 -48 -86 -137 -203 -154 -203 -10 0 58 133
161 315 89 156 125 214 128 206 1 -4 -18 -59 -43 -122z"/>
<path d="M7708 5357 c-15 -6 -36 -24 -48 -39 -12 -16 -30 -28 -40 -28 -52 0
-179 -215 -228 -385 -60 -207 -49 -348 35 -427 65 -62 202 -91 258 -54 68 44
198 263 255 429 25 73 36 90 102 157 96 99 170 198 166 223 -2 11 -11 25 -20
31 -14 8 -21 4 -40 -19 -27 -35 -140 -145 -149 -145 -3 0 -9 24 -12 54 -6 57
-33 120 -64 148 -50 46 -169 76 -215 55z m96 -173 c9 -24 7 -147 -3 -163 -7
-11 -13 -9 -30 8 -29 29 -31 92 -5 144 16 31 29 34 38 11z m-74 -296 c25 -8
29 -14 24 -32 -12 -39 -82 -171 -113 -213 -32 -45 -84 -78 -103 -67 -28 17 13
207 77 358 l17 39 34 -37 c19 -20 48 -42 64 -48z"/>
<path d="M7307 5277 c-8 -12 -26 -46 -41 -74 l-26 -53 -48 34 c-26 18 -62 38
-81 45 -47 15 -116 14 -150 -4 -40 -20 -99 -90 -141 -165 -33 -59 -124 -170
-140 -170 -4 0 -10 24 -12 53 -9 107 -78 185 -183 207 -73 15 -109 6 -140 -35
-14 -18 -38 -35 -53 -38 -32 -7 -113 -122 -168 -243 -82 -177 -111 -402 -64
-498 40 -84 130 -136 236 -136 45 0 59 5 87 30 72 63 205 300 247 439 12 42
27 71 41 79 18 12 20 11 15 -5 -17 -60 -27 -156 -21 -213 10 -106 60 -171 165
-219 84 -38 91 -35 146 84 27 57 50 101 52 96 6 -17 -67 -200 -97 -244 -40
-59 -100 -94 -174 -103 -31 -4 -57 -12 -57 -18 0 -26 40 -74 75 -91 58 -27
160 -17 223 21 105 66 157 172 242 503 72 281 120 429 176 549 48 104 47 116
-11 152 -60 37 -82 41 -98 17z m-131 -215 c16 -24 15 -28 -6 -81 -51 -125
-227 -422 -274 -461 -16 -13 -20 -12 -33 5 -42 57 53 355 155 490 41 53 92 86
122 78 10 -3 27 -17 36 -31z m-692 -88 c10 -27 7 -152 -5 -159 -5 -4 -19 1
-30 11 -24 21 -26 92 -4 134 17 33 30 38 39 14z m-134 -248 c17 -18 44 -39 60
-46 36 -15 35 -20 -18 -125 -63 -127 -139 -210 -174 -189 -18 11 -2 134 31
231 34 102 59 163 66 163 3 0 19 -15 35 -34z"/>
<path d="M2670 5154 c-5 -12 -12 -39 -16 -59 -6 -33 -3 -40 22 -60 l29 -23 11
52 c6 28 14 63 18 77 7 24 5 27 -24 31 -26 4 -33 1 -40 -18z"/>
<path d="M5490 5144 c-128 -32 -365 -80 -475 -95 -89 -13 -89 -13 -47 -22 45
-9 201 16 439 69 134 30 186 47 191 62 5 15 7 15 -108 -14z"/>
<path d="M2838 5135 c-5 -22 -3 -25 16 -19 11 4 49 7 82 7 148 -1 303 -132
275 -231 -5 -15 -23 -49 -40 -77 l-32 -50 73 -6 c43 -4 92 -15 120 -28 l46
-22 44 28 c23 15 63 43 88 61 41 31 44 38 45 80 3 90 18 177 36 208 11 17 19
41 19 52 0 20 -5 20 -384 21 l-384 2 -4 -26z"/>
<path d="M2306 5005 c-83 -21 -222 -97 -298 -164 -223 -193 -318 -416 -259
-609 37 -124 113 -199 290 -289 52 -26 114 -67 139 -90 43 -41 44 -44 39 -88
-6 -57 -47 -104 -122 -141 -109 -53 -230 -52 -277 2 -12 13 -25 24 -29 24 -19
0 -84 -68 -100 -105 -27 -58 -24 -107 7 -144 46 -55 148 -65 294 -31 133 32
241 91 331 180 82 82 110 130 117 201 11 118 -65 214 -246 308 -181 95 -246
174 -245 301 1 182 195 433 387 501 67 23 95 24 123 4 53 -37 50 -147 -8 -295
-65 -170 -206 -330 -291 -330 -17 0 -28 -5 -28 -14 0 -24 44 -79 80 -97 42
-23 126 -25 174 -5 148 62 287 350 290 601 1 85 -3 106 -21 141 -62 116 -207
174 -347 139z"/>
<path d="M2874 4963 c-150 -353 -290 -758 -379 -1097 -42 -162 -44 -171 -27
-189 19 -22 81 -52 128 -62 31 -6 32 -5 38 38 7 48 86 190 235 423 125 196
123 195 85 56 -50 -183 -86 -353 -80 -377 8 -32 71 -57 156 -62 l75 -5 71 143
72 144 11 -43 c16 -58 78 -124 142 -152 67 -29 147 -31 182 -5 69 51 197 268
252 430 16 44 37 89 48 100 19 20 19 20 13 -10 -4 -16 -10 -78 -13 -137 -5
-102 -4 -110 20 -160 46 -92 127 -128 287 -128 l96 0 61 128 c34 70 89 178
124 240 l62 114 74 -74 c92 -91 99 -102 79 -133 -34 -52 -181 -73 -212 -30
-11 15 -14 14 -29 -8 -19 -30 -55 -121 -55 -141 0 -20 84 -46 148 -46 59 0
159 23 205 46 47 25 109 87 128 129 21 44 24 119 9 160 -6 15 -46 66 -90 114
-94 100 -109 135 -87 199 34 97 147 246 170 223 14 -14 -15 -127 -54 -207 -27
-55 -30 -68 -21 -89 11 -25 95 -85 117 -85 18 0 101 246 126 369 16 81 1 105
-75 122 -111 24 -248 -23 -350 -121 -99 -95 -152 -218 -139 -322 4 -31 -3 -51
-43 -120 -114 -198 -211 -318 -255 -318 -32 0 -42 8 -68 50 -16 26 -21 51 -21
103 0 37 2 67 5 67 3 0 23 -9 45 -20 77 -39 111 -25 180 75 62 91 160 310 160
360 0 13 -15 41 -32 61 -72 82 -214 111 -290 59 -41 -28 -111 -122 -151 -201
-15 -29 -46 -68 -69 -88 -43 -37 -43 -37 -50 -14 -3 13 -6 36 -7 51 -1 15 -10
44 -20 65 -40 78 -113 122 -207 125 -49 2 -56 -1 -91 -35 -21 -20 -47 -38 -58
-40 -47 -8 -171 -228 -220 -389 -23 -79 -107 -235 -151 -279 -22 -22 -19 0 20
141 43 155 86 278 137 388 l40 85 -23 17 c-28 22 -86 39 -131 39 -30 0 -43 -8
-81 -47 -78 -83 -223 -287 -296 -416 -18 -32 -34 -56 -36 -54 -11 11 134 406
211 579 30 65 68 142 85 169 24 39 28 54 20 64 -21 26 -114 65 -152 65 -34 0
-39 -4 -54 -37z m1432 -328 c9 -21 -14 -81 -58 -158 -45 -77 -128 -169 -135
-150 -13 36 77 229 133 287 38 39 52 44 60 21z m-606 -104 c11 -21 12 -98 1
-144 -6 -26 -7 -27 -28 -12 -32 22 -39 76 -18 130 18 49 29 55 45 26z m-141
-242 c13 -17 41 -39 62 -48 l40 -18 -55 -110 c-39 -77 -69 -122 -100 -151 -25
-23 -50 -42 -55 -42 -23 0 -31 40 -21 102 12 80 86 298 100 298 4 0 17 -14 29
-31z"/>
<path d="M4433 4923 c-67 -4 -82 -17 -33 -28 16 -4 44 -17 63 -29 l33 -23 49
44 49 43 -49 -2 c-28 -1 -78 -3 -112 -5z"/>
<path d="M5006 4311 c-3 -5 -1 -33 4 -62 27 -140 -40 -285 -169 -368 -101 -65
-263 -100 -374 -81 -61 11 -67 10 -87 -10 -29 -29 -59 -39 -148 -46 -146 -12
-279 24 -368 100 l-41 35 -51 -73 c-62 -88 -131 -152 -181 -166 -93 -26 -244
7 -313 67 -16 14 -20 11 -45 -42 -38 -78 -66 -97 -154 -104 l-71 -6 67 -109
c325 -537 872 -899 1510 -1003 153 -24 467 -24 624 0 473 74 872 276 1201 606
228 229 390 480 499 774 29 78 28 79 -23 72 -56 -9 -156 17 -205 52 -73 52
-120 147 -107 215 6 33 41 75 79 95 16 8 14 12 -13 38 -16 16 -31 27 -33 24
-2 -2 -19 -26 -37 -54 -83 -123 -144 -176 -220 -190 -32 -6 -38 -12 -53 -55
-26 -73 -48 -83 -207 -91 -235 -12 -434 -61 -614 -151 -92 -46 -105 -50 -152
-45 -88 9 -187 70 -245 151 -58 79 -28 182 61 206 33 9 150 57 158 65 2 2 0
18 -3 37 -6 33 -7 34 -59 34 -56 1 -126 27 -179 68 -37 28 -43 30 -51 17z
m1299 -571 c17 -19 17 -21 2 -38 -23 -25 -21 -38 5 -56 25 -18 36 -13 48 20 5
13 14 24 19 24 17 0 42 -32 37 -47 -19 -47 -17 -59 9 -71 24 -11 27 -9 46 23
18 29 24 33 40 25 10 -6 19 -20 19 -32 0 -20 -56 -118 -68 -118 -3 0 -54 32
-113 70 -59 39 -113 70 -121 70 -32 0 -38 22 -16 64 47 92 61 102 93 66z m-79
-224 c24 -24 34 -43 34 -66 0 -26 5 -33 36 -46 20 -8 48 -14 62 -12 31 3 42
-23 21 -49 -13 -15 -72 -14 -126 2 -36 11 -29 -18 12 -49 l35 -27 -24 -26 -24
-26 -54 50 c-95 89 -133 120 -155 127 -29 9 -29 17 1 65 60 95 124 115 182 57z
m-2531 -16 c38 -15 95 -63 95 -81 0 -9 -10 -21 -23 -26 -20 -9 -31 -6 -67 18
-55 37 -66 28 -49 -45 11 -52 11 -59 -8 -83 -10 -15 -31 -30 -45 -34 -27 -7
-83 9 -122 34 -22 15 -23 19 -14 51 l11 35 36 -25 c20 -13 44 -24 54 -24 17 0
18 6 12 73 -7 72 -6 74 20 95 30 24 59 27 100 12z m195 -173 c0 -7 -6 -38 -14
-69 -7 -32 -10 -58 -7 -58 4 0 21 20 39 45 17 25 35 45 39 45 5 0 18 -8 30
-18 l22 -17 -60 -70 c-33 -38 -78 -96 -99 -128 l-39 -58 -21 21 c-24 24 -24
27 -5 105 8 33 14 64 15 69 0 15 -30 -16 -61 -61 l-30 -43 -29 20 -29 21 82
95 c45 52 88 109 95 125 l12 30 30 -21 c17 -12 30 -27 30 -33z m2054 26 c3 -4
16 -8 29 -10 52 -8 146 -132 149 -196 2 -65 -59 -121 -118 -109 -31 6 -109 82
-134 133 -32 61 -27 106 17 151 38 39 45 43 57 31z m-155 -155 c9 -20 11 -33
4 -35 -6 -2 -18 -9 -27 -16 -15 -11 -11 -22 44 -115 l61 -103 -23 -19 c-13
-11 -25 -19 -28 -20 -3 0 -24 37 -48 83 -24 45 -51 93 -62 107 -18 23 -19 24
-38 7 -19 -17 -20 -17 -36 7 -8 14 -14 31 -11 38 5 12 131 98 145 98 3 0 11
-14 19 -32z m-1681 -8 c89 -46 88 -44 62 -70 -19 -19 -26 -20 -47 -11 -34 15
-39 14 -57 -14 -17 -25 -17 -26 19 -40 40 -18 43 -25 15 -50 -17 -15 -24 -16
-46 -6 -29 13 -48 3 -57 -29 -4 -15 3 -22 29 -32 37 -13 42 -28 18 -52 -20
-20 -16 -21 -72 9 -81 42 -80 32 -13 146 34 57 66 121 72 141 5 21 12 38 15
38 2 0 30 -13 62 -30z m1460 -82 c24 -24 13 -54 -33 -86 -26 -18 -43 -37 -40
-42 3 -5 29 -13 57 -16 113 -15 131 -100 39 -181 -32 -28 -42 -29 -72 -2 -18
15 -21 22 -10 26 7 3 28 18 45 34 38 34 30 45 -44 59 -64 12 -90 33 -90 72 0
45 27 86 78 118 54 34 54 34 70 18z m-1236 -25 c32 -10 58 -23 58 -29 0 -5 -9
-59 -20 -119 -11 -60 -20 -128 -20 -152 0 -38 -3 -43 -23 -43 -30 0 -47 18
-47 51 0 21 -7 29 -31 38 -43 15 -47 14 -54 -9 -7 -23 -13 -24 -50 -10 l-27
10 24 33 c61 81 118 185 118 215 0 38 -1 37 72 15z m245 -77 c2 -2 -4 -26 -13
-55 -8 -29 -13 -55 -11 -57 2 -2 25 18 51 46 47 50 49 51 82 40 19 -6 34 -13
34 -14 0 -2 -23 -26 -51 -54 l-51 -51 7 -53 c4 -29 13 -66 21 -82 16 -32 5
-56 -25 -56 -27 0 -40 20 -53 82 -11 55 -13 57 -30 41 -11 -10 -18 -30 -18
-55 0 -38 0 -38 -41 -38 -34 0 -40 3 -35 18 12 37 56 258 56 281 0 21 3 23 38
16 20 -4 38 -8 39 -9z m594 -26 c22 -12 49 -60 49 -87 0 -10 -9 -36 -20 -58
-11 -22 -20 -43 -20 -47 0 -4 16 -26 37 -48 33 -37 35 -42 20 -57 -25 -25 -62
-9 -94 42 -15 24 -32 43 -38 41 -5 -1 -10 -25 -10 -52 0 -46 -2 -49 -28 -52
-33 -4 -32 -7 -46 138 -8 78 -17 120 -28 132 -19 22 -13 29 35 44 48 15 118
17 143 4z m-247 -27 c-10 -41 -13 -44 -41 -37 -28 7 -43 -7 -43 -43 0 -20 5
-23 40 -23 33 0 40 -3 40 -19 0 -27 -27 -51 -56 -51 -20 0 -24 -5 -24 -30 0
-28 2 -30 40 -30 36 0 40 -3 40 -25 0 -34 -28 -46 -97 -40 -49 3 -58 7 -56 22
1 10 3 82 3 161 l2 142 79 0 79 0 -6 -27z"/>
<path d="M6141 3464 c-28 -20 -27 -38 6 -64 31 -24 43 -14 43 36 0 38 -19 48
-49 28z"/>
<path d="M5930 3255 c-20 -24 8 -78 66 -128 26 -22 54 -13 54 18 0 36 -73 125
-103 125 -3 0 -10 -7 -17 -15z"/>
<path d="M4277 2948 c-29 -41 -28 -58 3 -58 14 0 21 10 25 34 12 59 2 67 -28
24z"/>
<path d="M5080 2880 c0 -44 11 -50 48 -24 40 28 24 64 -29 64 -16 0 -19 -7
-19 -40z"/>
<path d="M7106 3980 c-47 -37 -52 -45 -92 -160 -113 -325 -302 -620 -555 -867
-176 -171 -352 -295 -574 -403 -296 -145 -572 -214 -905 -227 -463 -18 -908
105 -1304 361 -313 202 -616 539 -772 858 -16 32 -37 61 -47 64 -10 3 -34 19
-53 36 -59 52 -54 12 15 -127 222 -442 581 -799 1032 -1025 475 -239 1043
-305 1574 -184 329 76 652 230 923 441 98 77 274 249 353 348 155 191 309 466
382 680 31 90 78 246 74 244 -1 0 -24 -18 -51 -39z"/>
</g>
</svg>
