<?xml version="1.0" standalone="no"?>
<!DOCTYPE svg PUBLIC "-//W3C//DTD SVG 20010904//EN"
 "http://www.w3.org/TR/2001/REC-SVG-20010904/DTD/svg10.dtd">
<svg version="1.0" xmlns="http://www.w3.org/2000/svg"
 width="1200.000000pt" height="630.000000pt" viewBox="0 0 1200.000000 630.000000"
 preserveAspectRatio="xMidYMid meet">

<g transform="translate(0.000000,630.000000) scale(0.100000,-0.100000)"
fill="#000000" stroke="none">
<path d="M4760 5280 c-261 -22 -462 -110 -625 -274 -124 -125 -206 -283 -248
-480 -22 -101 -22 -105 -22 -1376 0 -1275 0 -1275 22 -1377 75 -351 299 -605
623 -705 168 -52 130 -51 1395 -55 1230 -4 1363 -1 1523 37 207 50 393 169
510 328 132 178 185 346 199 622 l6 125 -61 -62 c-299 -304 -776 -500 -1345
-554 -179 -16 -543 -7 -714 20 -161 24 -350 70 -486 117 -110 39 -312 132
-390 181 l-48 30 -97 -33 c-120 -41 -249 -64 -357 -64 -118 0 -141 14 -94 56
34 30 88 119 116 192 19 50 26 87 27 147 l1 80 -68 113 c-148 241 -242 517
-294 859 -26 173 -23 576 5 761 54 346 168 654 330 897 79 118 223 272 330
352 42 31 81 61 87 65 11 9 -204 8 -325 -2z"/>
<path d="M6697 3884 c-4 -4 -7 -226 -7 -493 0 -371 3 -492 13 -511 11 -23 19
-25 90 -28 l77 -3 -2 518 -3 518 -80 3 c-45 1 -84 0 -88 -4z"/>
<path d="M4870 3785 l0 -85 285 0 c157 0 285 -3 285 -6 0 -3 -126 -163 -281
-356 -155 -192 -287 -362 -295 -376 -8 -15 -14 -46 -14 -69 l0 -43 403 0 c467
0 439 -6 441 97 l1 58 -297 3 c-164 1 -298 4 -298 7 0 2 130 169 290 370 229
290 290 373 295 403 3 20 8 47 11 60 l4 22 -415 0 -415 0 0 -85z"/>
<path d="M7290 3636 c-116 -33 -211 -113 -263 -224 -29 -61 -32 -75 -32 -167
0 -91 3 -106 31 -165 54 -114 128 -181 245 -220 138 -47 299 -8 404 97 90 90
137 232 116 348 -22 119 -99 233 -196 290 -87 51 -210 67 -305 41z m207 -175
c87 -45 133 -122 133 -223 0 -178 -188 -291 -347 -209 -84 43 -127 116 -128
216 0 59 4 78 28 117 66 113 203 156 314 99z"/>
<path d="M6012 3621 c-104 -39 -179 -110 -230 -219 -24 -50 -27 -69 -27 -158
0 -96 2 -103 38 -176 100 -202 337 -282 532 -180 27 15 53 28 58 30 4 2 7 -5
7 -16 0 -35 32 -52 98 -52 l62 0 0 385 0 385 -80 0 c-79 0 -80 0 -80 -26 0
-14 -3 -24 -7 -22 -114 58 -129 62 -223 65 -75 3 -106 -1 -148 -16z m233 -160
c86 -39 138 -121 138 -216 0 -73 -19 -120 -68 -170 -50 -49 -97 -68 -170 -68
-74 0 -128 25 -179 85 -102 119 -57 310 89 374 44 19 143 17 190 -5z"/>
</g>
</svg>
